PathFileType	4	(X/Y/Z)	C:\Users\Basilio\Documents\Thesis Gigler\squatting_fais\c3dfiles\058\SLS_back_pre2\markers_experimental.trc
DataRate	CameraRate	NumFrames	NumMarkers	Units	OrigDataRate	OrigDataStartFrame	OrigNumFrames
200.000000	200.000000	4	61	mm	200.000000	743	1487
Frame#	Time	FHD			LBHD			RBHD			C7			T10			CLAV			LSHO			LUUPA			LMUPA			LDUPA			LLEP			LMEP			LUL			LRFIN			RSHO			RUPA1			RMUPA			RDUPA			RLEP			RMEP			RRAD			RUL			RUFIN			LASI			RASI			USACR			LSACR			RSACR			LTHI1			LTHI2			LTHI3			LTHI4			LLFC			LMFC			LTIB1			LTIB2			LTIB3			LTIB4			LLMAL			LMMAL			LHEE			LMT1			LMT5			RTHI			RTHI2			RTHI3			RTHI4			RLFC			RMFC			RTIB1			RTIB2			RTIB3			RTIB4			RLMAL			RMMAL			RHEE			RMT1			RMT2			RMT5			LRAD			LMT2			
		X1	Y1	Z1	X2	Y2	Z2	X3	Y3	Z3	X4	Y4	Z4	X5	Y5	Z5	X6	Y6	Z6	X7	Y7	Z7	X8	Y8	Z8	X9	Y9	Z9	X10	Y10	Z10	X11	Y11	Z11	X12	Y12	Z12	X13	Y13	Z13	X14	Y14	Z14	X15	Y15	Z15	X16	Y16	Z16	X17	Y17	Z17	X18	Y18	Z18	X19	Y19	Z19	X20	Y20	Z20	X21	Y21	Z21	X22	Y22	Z22	X23	Y23	Z23	X24	Y24	Z24	X25	Y25	Z25	X26	Y26	Z26	X27	Y27	Z27	X28	Y28	Z28	X29	Y29	Z29	X30	Y30	Z30	X31	Y31	Z31	X32	Y32	Z32	X33	Y33	Z33	X34	Y34	Z34	X35	Y35	Z35	X36	Y36	Z36	X37	Y37	Z37	X38	Y38	Z38	X39	Y39	Z39	X40	Y40	Z40	X41	Y41	Z41	X42	Y42	Z42	X43	Y43	Z43	X44	Y44	Z44	X45	Y45	Z45	X46	Y46	Z46	X47	Y47	Z47	X48	Y48	Z48	X49	Y49	Z49	X50	Y50	Z50	X51	Y51	Z51	X52	Y52	Z52	X53	Y53	Z53	X54	Y54	Z54	X55	Y55	Z55	X56	Y56	Z56	X57	Y57	Z57	X58	Y58	Z58	X59	Y59	Z59	X60	Y60	Z60	X61	Y61	Z61	

744	3.715	-191.2003479003907	1760.207153320313	-664.3905639648439	-346.2726745605469	1719.619018554688	-747.5177001953126	-170.6202087402344	1766.2783203125	-806.4815063476565	-366.4084167480469	1565.2412109375	-766.7906494140626	-417.6518554687501	1266.538208007813	-738.5300292968751	-213.8294219970704	1506.19384765625	-735.7525024414064	-210.3272247314454	1559.451171875	-887.757751464844	-48.41147994995119	1488.694213867188	-982.252624511719	-27.22112846374512	1523.469482421875	-953.9883422851565	17.93014907836914	1484.745483398438	-966.2204589843752	90.36944580078126	1486.3271484375	-942.3396606445315	90.00169372558595	1431.019287109375	-908.2397460937502	356.0733642578126	1513.099731445313	-892.231140136719	439.8314819335939	1520.957397460938	-802.1926879882815	-245.8027648925782	1573.4931640625	-592.4224243164064	-100.6823883056641	1483.520874023438	-472.9885559082032	-74.27822875976564	1518.791625976563	-498.023651123047	-31.02421951293946	1487.964721679688	-471.7838745117189	36.22616958618165	1474.50537109375	-475.7588806152345	42.78997802734376	1413.33984375	-523.1253662109376	309.0206604003907	1487.18896484375	-557.2897338867189	307.2663269042969	1503.362670898438	-477.5612182617189	397.9292602539064	1520.264404296875	-545.6412963867189	-272.5228576660157	1038.415893554688	-850.726989746094	-276.2522888183594	1039.315307617188	-610.6199340820314	-450.4502563476564	1153.557495117188	-723.1210937500001	-461.9503173828126	1122.770263671875	-750.1378173828126	-460.9281616210939	1122.968872070313	-691.8027954101564	-310.9115600585938	773.9227294921877	-947.1589965820315	-275.8539123535157	695.6259765625001	-950.8201293945315	-232.6869049072266	695.2517700195314	-924.815124511719	-302.3917236328126	641.4854736328126	-951.399841308594	-319.1297302246094	561.7976684570314	-944.8261718750002	-299.2730712890626	532.7467651367189	-815.0028076171877	-416.7085571289064	477.5538635253907	-907.052429199219	-465.1890869140626	538.4013061523439	-945.342956542969	-467.1040039062501	495.6823120117189	-934.7192382812502	-544.4578857421876	482.2738342285157	-902.842712402344	-740.0552368164064	541.9042968750001	-890.4041748046877	-718.0990600585939	500.0736389160157	-809.5896606445315	-712.3098144531251	595.9237060546876	-832.5632934570315	-850.5928955078127	429.2442932128907	-792.9394531250002	-877.3923339843752	485.6390380859376	-881.5997314453127	-354.4050598144532	828.2150878906252	-553.3818359375001	-307.2406921386719	780.7501220703127	-559.8433227539064	-274.4655151367188	785.8941040039065	-563.3485107421876	-319.9198303222657	702.6312255859376	-586.6750488281251	-283.5797729492188	531.1463623046876	-623.9521484375001	-267.0834960937501	538.8453979492189	-757.2023925781251	-265.9042053222657	342.8927612304688	-739.0178222656251	-302.4189758300782	261.5158081054688	-675.8645629882814	-274.8777160644532	256.2604980468751	-715.8776245117189	-296.1075439453126	217.8655853271485	-752.2376708984376	-366.1113281250001	119.1419372558594	-711.2722778320314	-344.2628173828126	138.8375854492188	-802.1489868164065	-437.9639282226564	100.9533996582032	-769.120544433594	-229.1582946777344	55.53627014160158	-783.325622558594	-222.6207733154297	62.49635696411134	-731.0697021484376	-271.9591064453126	36.38850021362305	-676.6231079101564	344.8832397460938	1489.903076171875	-815.2522583007815	-875.928405761719	427.8974609375001	-831.4094238281252	
745	3.72	-190.3333587646485	1759.5205078125	-664.1495971679689	-345.6494140625001	1718.58154296875	-747.5349731445314	-170.1328887939453	1765.498291015625	-806.474060058594	-365.8073730468751	1564.584228515625	-766.8626098632814	-417.2928771972657	1265.741943359375	-738.4674682617189	-213.4964904785157	1505.377197265625	-735.6541748046876	-209.8520507812501	1558.569580078125	-887.7297973632815	-48.01648712158205	1487.828491210938	-982.179870605469	-26.85045623779298	1522.610107421875	-953.847351074219	18.38990211486817	1483.905517578125	-966.1682739257815	90.81668090820314	1485.445556640625	-942.2745361328127	90.42565917968751	1430.114501953125	-908.1348876953127	356.4564514160157	1512.3271484375	-892.1142578125002	440.2752990722657	1520.199584960938	-802.088317871094	-245.4143066406251	1572.81591796875	-592.4062500000001	-100.2138900756836	1482.452392578125	-472.8338928222657	-74.00424194335939	1518.045532226563	-498.0048217773439	-30.60871696472169	1487.099975585938	-471.7906799316407	36.72626495361329	1473.687255859375	-475.5828857421876	43.34869766235352	1412.382080078125	-522.9620971679689	311.3173522949219	1486.994384765625	-559.3670654296876	306.6683349609376	1501.916625976563	-478.1354980468751	398.1598205566407	1519.565307617188	-545.5195312500001	-272.4854431152344	1037.62060546875	-850.6960449218752	-275.9407653808594	1038.529296875	-610.6661376953126	-450.2908020019532	1152.72802734375	-722.9998779296876	-461.8019409179689	1121.899047851563	-750.0086059570314	-460.6596069335939	1122.416625976563	-691.6231689453126	-311.0434265136719	773.2557373046877	-947.2406005859377	-276.1284179687501	694.9400634765626	-951.024108886719	-232.5327301025391	694.4352416992189	-925.0203247070315	-302.5657958984376	640.8389282226564	-951.5005493164065	-319.4589233398438	561.1008300781251	-944.8955688476565	-299.4437255859376	532.1298217773439	-815.0828247070315	-416.9909667968751	476.5942382812501	-907.046813964844	-465.4314575195314	537.7517089843751	-945.3535156250002	-467.4752197265626	494.906951904297	-934.9445800781252	-544.9642944335939	482.6004028320314	-903.0672607421877	-740.2749633789064	541.6921997070314	-890.2884521484377	-718.3632202148439	499.1666564941407	-809.476501464844	-712.3616333007814	595.2170410156251	-832.1944580078127	-850.955017089844	428.7218017578126	-793.0632934570315	-877.7518310546877	485.5278625488282	-881.4816894531252	-353.4248657226563	827.4436645507815	-553.2921142578126	-306.4097900390626	780.165466308594	-559.7943115234376	-273.6172790527344	785.5852050781252	-563.4260864257814	-319.0177307128907	701.9995117187501	-586.5438232421876	-282.2319335937501	530.8308105468751	-624.0757446289064	-265.9882202148438	538.5744018554689	-757.1853637695314	-265.0811157226563	342.6327514648438	-739.1426391601564	-301.7928466796876	261.3172302246094	-675.8869018554689	-274.2292175292969	255.4173431396485	-715.8676757812501	-295.7035217285157	217.4917602539063	-752.3164062500001	-366.0199279785157	119.1046676635742	-711.2894287109376	-344.1564025878907	138.7957763671875	-802.1936645507815	-437.9137268066407	100.9967498779297	-769.149108886719	-229.1019592285157	55.55473709106447	-783.3721923828127	-222.634750366211	62.44739532470705	-731.1103515625001	-271.9589233398438	36.39282989501954	-676.6714477539064	345.4822082519532	1489.207763671875	-815.0673828125002	-876.338317871094	427.5815734863282	-831.5220947265627	
746	3.725	-189.5455474853516	1758.8134765625	-664.2106323242189	-345.3969421386719	1718.023803710938	-747.3625488281251	-169.7476196289063	1764.552856445313	-806.518981933594	-365.2247924804688	1563.949951171875	-766.8322753906251	-417.106170654297	1265.003540039063	-738.2712402343751	-213.0479125976563	1504.557006835938	-735.6309814453126	-209.4502258300782	1557.718139648438	-887.5753173828127	-47.68344879150391	1486.873901367188	-982.0345458984377	-26.31029129028321	1521.815063476563	-953.742858886719	18.78166961669922	1483.249877929688	-965.993835449219	91.39490509033205	1484.692993164063	-942.1688232421877	90.93645477294923	1428.965209960938	-908.1077880859377	357.0008239746094	1511.370483398438	-891.9880371093752	440.7693481445314	1519.405883789063	-801.9378051757815	-245.0480651855469	1571.731811523438	-592.1380004882814	-99.5900802612305	1481.6728515625	-472.671844482422	-73.70044708251955	1517.05224609375	-497.914276123047	-30.2630844116211	1486.246215820313	-471.6275024414064	37.26786422729493	1473.017700195313	-475.5177307128907	43.60969161987305	1411.74853515625	-522.7306518554689	302.3327331542969	1483.920288085938	-549.2905273437501	308.0104675292969	1502.0302734375	-477.6432495117189	398.9446411132814	1519.243286132813	-545.3327026367189	-272.3454284667969	1036.860107421875	-850.6137695312502	-275.3566284179688	1037.953491210938	-610.1002197265626	-450.0623168945314	1152.178955078125	-722.7154541015626	-461.4960937500001	1121.172729492188	-749.9447021484376	-460.5915832519532	1121.93017578125	-691.3643798828126	-310.9295959472657	772.5341796875002	-947.2976074218752	-275.6863098144532	694.2725830078126	-951.2707519531252	-232.6685638427735	693.7718505859376	-925.022888183594	-302.6625671386719	640.0921020507814	-951.4895019531252	-319.6807556152344	560.3541259765626	-945.041931152344	-299.6044006347657	531.3933715820314	-815.1109008789065	-416.912567138672	475.972381591797	-907.7917480468752	-465.7288208007814	537.3935546875001	-945.3062744140627	-467.8914489746095	494.4405212402345	-935.049499511719	-545.2349853515626	482.1278381347657	-903.1856079101565	-740.4818115234376	541.5065917968751	-890.1841430664065	-718.6874389648439	498.8933715820314	-809.3592529296877	-712.4104614257814	594.8580932617189	-831.9877929687502	-851.4669189453127	428.2776184082032	-793.2626953125002	-878.0729980468752	485.4482727050782	-881.351745605469	-352.8036804199219	826.795349121094	-553.1542968750001	-305.5238037109376	779.7451171875002	-559.6596679687501	-272.6978149414063	785.3421020507815	-563.2119140625001	-317.7576293945313	701.2645263671876	-586.5880737304689	-280.8489379882813	530.2264404296876	-624.1378784179689	-264.6779785156251	538.3473510742189	-757.1343383789064	-264.2341918945313	342.3212280273438	-739.3723144531251	-301.0956726074219	261.0609436035157	-676.0366821289064	-273.8015136718751	255.0476226806641	-716.1245727539064	-295.6496276855469	217.5412902832032	-752.4545898437501	-365.7935485839844	119.0956420898438	-711.3106079101564	-344.1071472167969	139.0911712646485	-802.5209960937502	-437.9088745117189	100.9768600463867	-769.1714477539065	-229.1122131347657	55.50942230224611	-783.4348144531252	-222.6237182617188	62.45057296752931	-731.1539916992189	-271.9763793945313	36.38573455810548	-676.7110595703126	345.9371948242188	1488.186645507813	-814.8681640625002	-876.737976074219	427.3832092285157	-831.664733886719	
747	3.73	-189.2337951660157	1758.162719726563	-664.0919799804689	-344.8823547363282	1717.137084960938	-747.1439208984376	-169.1739654541016	1763.81494140625	-806.3914794921877	-364.7121582031251	1563.270141601563	-766.6711425781251	-416.7825012207032	1264.224487304688	-738.1942138671876	-212.5329132080079	1503.706909179688	-735.5417480468751	-208.747543334961	1556.960815429688	-887.5059204101565	-47.12224197387696	1486.251220703125	-982.0130615234377	-25.94839477539063	1520.989501953125	-953.732360839844	19.28834342956543	1482.125	-966.0493164062502	92.00167846679689	1483.814819335938	-942.147888183594	90.91841888427736	1428.360229492188	-907.6929931640627	357.3630981445313	1510.63525390625	-891.8306274414065	441.220672607422	1518.637329101563	-801.865417480469	-244.4005584716797	1571.046264648438	-591.8170166015626	-99.13478851318362	1480.963500976563	-472.5327453613282	-73.12496185302736	1516.518798828125	-497.6914978027345	-29.7340488433838	1485.286743164063	-471.4828186035157	37.78150177001954	1472.24072265625	-475.3528747558595	44.01006698608399	1410.779296875	-522.5593261718751	303.5227355957032	1483.202270507813	-550.1156005859376	308.3936462402344	1501.174926757813	-477.8248596191407	399.5796203613282	1518.683471679688	-545.3606567382814	-272.1060791015626	1036.015014648438	-850.4630126953127	-275.4540405273438	1036.792236328125	-610.5968017578126	-449.798309326172	1151.603393554688	-722.6222534179689	-461.2154846191407	1120.745971679688	-749.7280273437501	-460.298553466797	1121.399658203125	-691.3148193359376	-310.9771118164063	771.7046508789065	-947.2376708984377	-275.6137390136719	693.6558227539064	-951.2227172851565	-232.8479309082032	693.0223999023439	-924.9331665039065	-302.8524169921876	639.1718139648439	-951.5875244140627	-319.9788513183594	559.6821899414064	-945.1594238281252	-299.7582092285157	530.4494628906251	-815.2608032226565	-417.4114685058595	475.3385314941407	-907.8992919921877	-466.0938110351564	536.9899902343751	-945.2407836914065	-468.1305541992189	494.0172424316407	-935.1674804687502	-545.4465332031251	481.4584350585939	-903.1372070312502	-740.7139282226564	541.2180175781251	-890.0042114257815	-718.9114379882814	498.4335327148439	-809.2173461914065	-712.4973144531251	594.5337524414064	-831.894226074219	-851.7573242187502	427.8085937500001	-793.3273925781252	-878.8987426757815	485.852264404297	-881.074645996094	-352.1091918945313	825.9412841796877	-553.1584472656251	-304.8249206542969	779.1802368164065	-559.6536254882814	-272.1471557617188	784.2612915039065	-563.5242919921876	-316.9794311523438	700.7108764648439	-586.6849365234376	-279.3370971679688	529.7766113281251	-624.2680664062501	-263.4293518066407	538.0908813476564	-757.1454467773439	-263.3870239257813	342.0179748535157	-739.5682373046876	-301.1031494140626	260.7313537597657	-676.1473388671876	-273.0648193359376	254.4468078613282	-715.8798217773439	-295.5661926269532	217.3155364990235	-752.6153564453126	-365.7249450683594	119.0930480957032	-711.3790283203126	-343.9581298828126	139.0774078369141	-802.5691528320315	-437.9061279296876	101.0117721557617	-769.1599121093752	-229.1188201904297	55.50349426269533	-783.4245605468752	-222.6269226074219	62.42838668823244	-731.2016601562501	-271.9922485351563	36.36847686767579	-676.6713256835939	346.2268981933594	1487.326782226563	-814.8225097656252	-877.272155761719	427.375457763672	-831.7006835937502	
